<svg xmlns="http://www.w3.org/2000/svg" viewBox="0 0 1440 900"><g fill="none" stroke="black" stroke-linecap="butt" stroke-linejoin="miter"><g transform="translate(1040 130) scale(1.18 1.18)"><rect x="0" y="-3" width="38" height="6" stroke-width="1.1"/><rect x="83" y="-3" width="153" height="6" stroke-width="1.1"/><rect x="306" y="-3" width="54" height="6" stroke-width="1.1"/><rect x="357" y="0" width="6" height="40" stroke-width="1.1"/><rect x="357" y="90" width="6" height="210" stroke-width="1.1"/><rect x="285" y="297" width="75" height="6" stroke-width="1.1"/><rect x="150" y="297" width="30" height="6" stroke-width="1.1"/><rect x="226" y="297" width="14" height="6" stroke-width="1.1"/><rect x="147" y="225" width="6" height="75" stroke-width="1.1"/><rect x="0" y="222" width="150" height="6" stroke-width="1.1"/><rect x="-3" y="155" width="6" height="70" stroke-width="1.1"/><rect x="-3" y="0" width="6" height="110" stroke-width="1.1"/><rect x="0" y="91" width="105" height="6" stroke-width="1.1"/><rect x="133" y="91" width="77" height="6" stroke-width="1.1"/><rect x="207" y="0" width="6" height="94" stroke-width="1.1"/><rect x="210" y="91" width="150" height="6" stroke-width="1.1"/><rect x="95" y="0" width="6" height="94" stroke-width="1.1"/><rect x="0" y="172" width="95" height="6" stroke-width="1.1"/><rect x="124" y="172" width="26" height="6" stroke-width="1.1"/><rect x="147" y="175" width="6" height="50" stroke-width="1.1"/><rect x="207" y="94" width="6" height="51" stroke-width="1.1"/><rect x="207" y="174" width="6" height="51" stroke-width="1.1"/><rect x="150" y="222" width="60" height="6" stroke-width="1.1"/><rect x="287" y="94" width="6" height="96" stroke-width="1.1"/><rect x="287" y="218" width="6" height="82" stroke-width="1.1"/><rect x="150" y="116" width="60" height="70" stroke-width="0.95"/><path stroke-width="0.8" d="M155 121H205V181H155Z"/><g transform="translate(105 94) rotate(0)"><path stroke-width="0.8" d="M0 0V27 M0 27A27 27 0 0 0 27 0"/></g><g transform="translate(95 175) rotate(0)"><path stroke-width="0.8" d="M0 0V27 M0 27A27 27 0 0 0 27 0"/></g><g transform="translate(210 174) rotate(270)"><path stroke-width="0.8" d="M0 0V29 M0 29A29 29 0 0 0 29 0"/></g><g transform="translate(290 190) rotate(90)"><path stroke-width="0.8" d="M0 0V28 M0 28A28 28 0 0 0 28 0"/></g><g transform="translate(38 0) rotate(0)"><path stroke-width="0.8" d="M0 0V45 M0 45A45 45 0 0 0 45 0"/></g><path stroke-width="0.8" d="M45 -3h32 M45 0h32 M45 3h32 M45 -5v10 M77 -5v10"/><path stroke-width="0.8" d="M236 -3h70 M236 0h70 M236 3h70 M236 -5v10 M306 -5v10"/><path stroke-width="0.8" d="M357 45v40 M360 45v40 M363 45v40 M355 45h10 M355 85h10"/><path stroke-width="0.8" d="M180 297h46 M180 300h46 M180 303h46 M180 295v10 M226 295v10"/><path stroke-width="0.8" d="M-3 116v34 M0 116v34 M3 116v34 M-5 116h10 M-5 150h10"/><rect x="20" y="16" width="52" height="62" stroke-width="0.8"/><rect x="23" y="19" width="21" height="12" stroke-width="0.65"/><rect x="48" y="19" width="21" height="12" stroke-width="0.65"/><path stroke-width="0.8" d="M22 36h48"/><rect x="121" y="13" width="57" height="68" stroke-width="0.8"/><rect x="124" y="16" width="23.5" height="12" stroke-width="0.65"/><rect x="151.5" y="16" width="23.5" height="12" stroke-width="0.65"/><path stroke-width="0.8" d="M123 33h53"/><rect x="226" y="18" width="56" height="64" stroke-width="0.8"/><rect x="229" y="21" width="23" height="12" stroke-width="0.65"/><rect x="256" y="21" width="23" height="12" stroke-width="0.65"/><path stroke-width="0.8" d="M228 38h52"/><rect x="14" y="105" width="90" height="24" stroke-width="0.9"/><rect x="26" y="108" width="25" height="18" stroke-width="0.65"/><rect x="64" y="108" width="30" height="18" stroke-width="0.65"/><path stroke-width="0.8" d="M59 105v24"/><rect x="297" y="108" width="30" height="60" stroke-width="0.8"/><rect x="335" y="110" width="22" height="16" stroke-width="0.8"/><ellipse cx="347" cy="148" rx="10" ry="14" stroke-width=".7"/><rect x="313" y="208" width="27" height="67" stroke-width="0.9"/><path stroke-width="0.8" d="M313 208h27"/><path stroke-width="0.8" d="M313 215.44444444444446h27"/><path stroke-width="0.8" d="M313 222.88888888888889h27"/><path stroke-width="0.8" d="M313 230.33333333333334h27"/><path stroke-width="0.8" d="M313 237.77777777777777h27"/><path stroke-width="0.8" d="M313 245.22222222222223h27"/><path stroke-width="0.8" d="M313 252.66666666666666h27"/><path stroke-width="0.8" d="M313 260.1111111111111h27"/><path stroke-width="0.8" d="M313 267.55555555555554h27"/><path stroke-width="0.8" d="M326.5 216v51 m-5 -7l5 7l5 -7"/><rect x="175" y="246" width="65" height="30" stroke-width="0.8"/><path stroke-width="0.8" d="M180 237h55 M180 285h55"/><path stroke-width="0.8" d="M0 -12V-24 M360 -12V-24 M0 -20H360 M-18 0H-28 M-18 300H-28 M-23 0V300 M-3 -23l6 6 M357 -23l6 6 M-26 -3l6 6 M-26 297l6 6"/></g></g></svg>
