<svg xmlns="http://www.w3.org/2000/svg" viewBox="0 0 1440 900"><defs><clipPath id="district"><path d="M990 400H1490V940H990Z"/></clipPath></defs><g fill="none" stroke="black" stroke-width="1.3" stroke-linecap="round" stroke-linejoin="round"><g clip-path="url(#district)"><path stroke-width="1.1" d="M1030 566 L1118.8 574 L1204.9 565.5 L1286.8 558 L1365 566.9 L1441.8 573.9"/><path stroke-width="1.1" d="M1038.8 650.3 L1118.4 648.8 L1195.5 637.5 L1272.8 639.6 L1353.1 650.8 L1437.5 648"/><path stroke-width="1.7" d="M1026 729.8 L1104.8 720 L1187.4 714.3 L1274 724.5 L1363 729.5 L1451.6 719.1"/><path stroke-width="1.1" d="M1023 803.4 L1111.4 792.7 L1200.4 797 L1287.4 807.5 L1370.5 802.6 L1449.5 792.3"/><path stroke-width="1.1" d="M1037.1 874.5 L1122 870.9 L1202.6 882 L1280.1 884.8 L1357.1 873.6 L1436.4 871.4"/><path stroke-width="1.1" d="M1030 566 L1038.8 650.3 L1026 729.8 L1023 803.4 L1037.1 874.5"/><path stroke-width="1.1" d="M1118.8 574 L1118.4 648.8 L1104.8 720 L1111.4 792.7 L1122 870.9"/><path stroke-width="1.6" d="M1204.9 565.5 L1195.5 637.5 L1187.4 714.3 L1200.4 797 L1202.6 882"/><path stroke-width="1.1" d="M1286.8 558 L1272.8 639.6 L1274 724.5 L1287.4 807.5 L1280.1 884.8"/><path stroke-width="1.1" d="M1365 566.9 L1353.1 650.8 L1363 729.5 L1370.5 802.6 L1357.1 873.6"/><path stroke-width="1.1" d="M1441.8 573.9 L1437.5 648 L1451.6 719.1 L1449.5 792.3 L1436.4 871.4"/><path stroke-width="0.8" d="M1044 579 l35.5 3.2 l-2 25.7 h-17 v-5 h-18.5 Z"/><path stroke-width="0.8" d="M1379 579.9 l30.7 2.8 l-2 25.7 h-14.8 v-5 h-16 Z"/><path stroke-width="0.8" d="M1132.4 661.8 l30.8 -4.5 l-2 25.7 h-14.8 v-5 h-16 Z"/><path stroke-width="0.8" d="M1201.4 727.3 l34.7 4.1 l-2 25.7 h-16.6 v-5 h-18 Z"/><path stroke-width="0.8" d="M1301.4 820.5 l33.2 -2 l-2 25.7 h-15.9 v-5 h-17.3 Z"/><path stroke-width="1.6" d="M1000 401 C1040 412 1052 437 1077 468 S1128 503 1170 506 S1222 523 1270 509 S1335 468 1375 475 S1420 487 1460 485 M1000 409 C1040 420 1052 445 1077 476 S1128 511 1170 514 S1222 531 1270 517 S1335 476 1375 483 S1420 495 1460 493"/><path stroke-width="1.05" d="M1028 722 L1006 733 L1000 775 M1250 576 L1261 541 L1308 527 M1370 652 L1386 626 L1430 620"/><path stroke-width="1.05" d="M1190 711 C1202 693 1217 697 1234 710 L1252 741 Q1240 761 1222 750 L1202 740 Q1180 734 1190 711 Z M1195 720 Q1214 728 1236 740"/></g></g></svg>
